<svg xmlns="http://www.w3.org/2000/svg" width="1100" height="520" viewBox="0 0 1100 520" role="img" aria-labelledby="title desc">
  <title id="title">RAG vs PAG decision flow</title>
  <desc id="desc">RAG sends retrieved authority text into an LLM that generates the final verdict and citation. PAG sends messy documents into an LLM extractor, then a deterministic policy artifact produces the final verdict, rule trace, and authority IDs.</desc>
  <defs>
    <marker id="arrowBlue" markerWidth="12" markerHeight="12" refX="10" refY="6" orient="auto" markerUnits="strokeWidth">
      <path d="M2,2 L10,6 L2,10 Z" fill="#2563eb"/>
    </marker>
    <marker id="arrowGreen" markerWidth="12" markerHeight="12" refX="10" refY="6" orient="auto" markerUnits="strokeWidth">
      <path d="M2,2 L10,6 L2,10 Z" fill="#15803d"/>
    </marker>
    <filter id="shadow" x="-20%" y="-20%" width="140%" height="140%">
      <feDropShadow dx="0" dy="3" stdDeviation="5" flood-color="#0f172a" flood-opacity="0.14"/>
    </filter>
    <style>
      .bg { fill: #f8fafc; }
      .title { font: 700 30px Arial, sans-serif; fill: #0f172a; }
      .subtitle { font: 400 16px Arial, sans-serif; fill: #475569; }
      .lane-title { font: 700 24px Arial, sans-serif; fill: #0f172a; }
      .label { font: 700 16px Arial, sans-serif; fill: #0f172a; }
      .small { font: 400 14px Arial, sans-serif; fill: #475569; }
      .tiny { font: 400 12px Arial, sans-serif; fill: #64748b; }
      .box { fill: #ffffff; stroke: #cbd5e1; stroke-width: 1.5; rx: 10; filter: url(#shadow); }
      .blue { stroke: #2563eb; }
      .green { stroke: #15803d; }
      .amber { stroke: #d97706; }
      .blue-fill { fill: #eff6ff; }
      .green-fill { fill: #f0fdf4; }
      .amber-fill { fill: #fffbeb; }
      .line-blue { stroke: #2563eb; stroke-width: 3; fill: none; marker-end: url(#arrowBlue); }
      .line-green { stroke: #15803d; stroke-width: 3; fill: none; marker-end: url(#arrowGreen); }
      .divider { stroke: #cbd5e1; stroke-width: 1; stroke-dasharray: 6 8; }
      .callout { fill: #fff7ed; stroke: #fb923c; stroke-width: 1.5; rx: 10; }
      .mono { font: 700 15px Arial, sans-serif; fill: #334155; }
    </style>
  </defs>

  <rect class="bg" x="0" y="0" width="1100" height="520"/>
  <text class="title" x="50" y="48">RAG vs PAG: where should the final decision happen?</text>
  <text class="subtitle" x="50" y="76">Both use an LLM to read messy text. The difference is whether the LLM also makes the governed decision.</text>
  <line class="divider" x1="50" y1="255" x2="1050" y2="255"/>

  <text class="lane-title" x="50" y="132">RAG</text>
  <text class="subtitle" x="50" y="156">The LLM writes the answer.</text>

  <rect class="box blue-fill blue" x="50" y="178" width="170" height="86"/>
  <text class="label" x="82" y="210">FOIA request</text>
  <text class="small" x="76" y="234">messy input text</text>

  <path class="line-blue" d="M225 221 H292"/>

  <rect class="box blue-fill blue" x="305" y="178" width="180" height="86"/>
  <text class="label" x="343" y="210">Retrieve</text>
  <text class="small" x="333" y="234">authority chunks</text>

  <path class="line-blue" d="M490 221 H557"/>

  <rect class="box blue-fill blue" x="570" y="168" width="210" height="106"/>
  <text class="label" x="611" y="202">LLM decides</text>
  <text class="small" x="606" y="226">verdict + rationale</text>
  <text class="small" x="618" y="247">+ citation text</text>

  <path class="line-blue" d="M785 221 H852"/>

  <rect class="box amber-fill amber" x="865" y="168" width="185" height="106"/>
  <text class="label" x="898" y="202">Generated</text>
  <text class="small" x="904" y="226">final answer</text>
  <text class="tiny" x="900" y="249">real citation can still</text>
  <text class="tiny" x="903" y="265">support wrong verdict</text>

  <text class="lane-title" x="50" y="322">PAG / LogicPearl</text>
  <text class="subtitle" x="50" y="346">The LLM extracts facts; the policy artifact makes the governed decision.</text>

  <rect class="box green-fill green" x="50" y="368" width="170" height="86"/>
  <text class="label" x="82" y="400">FOIA request</text>
  <text class="small" x="76" y="424">messy input text</text>

  <path class="line-green" d="M225 411 H292"/>

  <rect class="box green-fill green" x="305" y="368" width="180" height="86"/>
  <text class="label" x="338" y="400">LLM extracts</text>
  <text class="small" x="351" y="424">facts only</text>

  <path class="line-green" d="M490 411 H557"/>

  <rect class="box green-fill green" x="570" y="358" width="210" height="106"/>
  <text class="label" x="598" y="392">Policy artifact</text>
  <text class="small" x="611" y="416">deterministic</text>
  <text class="small" x="604" y="437">0-token decision</text>

  <path class="line-green" d="M785 411 H852"/>

  <rect class="box green-fill green" x="865" y="358" width="185" height="106"/>
  <text class="label" x="900" y="392">Governed</text>
  <text class="small" x="904" y="416">final answer</text>
  <text class="tiny" x="895" y="439">verdict + rule trace</text>
  <text class="tiny" x="909" y="455">+ authority IDs</text>

  <rect class="callout" x="355" y="96" width="695" height="44"/>
  <text class="mono" x="380" y="123">Key result: chunk lookup made citation text real, but not always correct.</text>
</svg>
